<svg width="19" height="19" viewBox="0 0 19 19" fill="none" xmlns="http://www.w3.org/2000/svg">
<path d="M7.84771 17.9999C8.76031 17.9999 9.50011 17.2601 9.50011 16.3475C9.50011 15.4349 8.76031 14.6951 7.84771 14.6951C6.93512 14.6951 6.19531 15.4349 6.19531 16.3475C6.19531 17.2601 6.93512 17.9999 7.84771 17.9999Z" stroke="#FBF8F6" stroke-width="1.3125" stroke-linecap="round" stroke-linejoin="round"/>
<path d="M15.0467 17.9999C15.9593 17.9999 16.6991 17.2601 16.6991 16.3475C16.6991 15.4349 15.9593 14.6951 15.0467 14.6951C14.1341 14.6951 13.3943 15.4349 13.3943 16.3475C13.3943 17.2601 14.1341 17.9999 15.0467 17.9999Z" stroke="#FBF8F6" stroke-width="1.3125" stroke-linecap="round" stroke-linejoin="round"/>
<path d="M4.01726 3.23914L5.96983 9.42131C6.27 10.3714 6.4196 10.8464 6.70812 11.1981C6.96069 11.5089 7.29 11.7489 7.66206 11.8975C8.08463 12.0655 8.582 12.0655 9.57869 12.0655H13.3235C14.3202 12.0655 14.8176 12.0655 15.2392 11.8975C15.6122 11.7489 15.9406 11.5089 16.1941 11.1981C16.4817 10.8464 16.6313 10.3714 16.9324 9.42131L17.3297 8.16234L17.5629 7.41823L17.8844 6.39823C17.9991 6.03443 18.0266 5.64872 17.9645 5.27234C17.9024 4.89596 17.7525 4.53951 17.5269 4.23186C17.3014 3.92421 17.0066 3.67401 16.6663 3.50154C16.3261 3.32907 15.95 3.23918 15.5685 3.23914H4.01726ZM4.01726 3.23914L4.00657 3.2032C3.96555 3.0658 3.9202 2.92973 3.87057 2.7952C3.6739 2.29738 3.3404 1.86537 2.90859 1.54908C2.47678 1.23278 1.96429 1.04512 1.43034 1.00777C1.33029 1 1.22051 1 1 1" stroke="#FBF8F6" stroke-width="1.3125" stroke-linecap="round" stroke-linejoin="round"/>
</svg>
