<svg width="23" height="23" viewBox="0 0 23 23" fill="none" xmlns="http://www.w3.org/2000/svg">
<path d="M21.8005 12.5045C22 12.0227 22 11.4102 22 10.1875C22 8.96483 22 8.35233 21.8005 7.8705C21.6686 7.55192 21.4752 7.26245 21.2314 7.01863C20.9875 6.77481 20.6981 6.58142 20.3795 6.4495C19.8977 6.25 19.2852 6.25 18.0625 6.25H10.45C8.98 6.25 8.245 6.25 7.68383 6.53583C7.18947 6.78758 6.78758 7.18947 6.53583 7.68383C6.25 8.24383 6.25 8.97883 6.25 10.45V18.0625C6.25 19.2852 6.25 19.8977 6.4495 20.3795C6.71667 21.0223 7.22767 21.5345 7.8705 21.8005C8.35233 22 8.96483 22 10.1875 22C11.4102 22 12.0227 22 12.5045 21.8005M21.8005 12.5045C21.6686 12.8231 21.4752 13.1125 21.2314 13.3564C20.9875 13.6002 20.6981 13.7936 20.3795 13.9255C19.8977 14.125 19.2852 14.125 18.0625 14.125C16.8398 14.125 16.2273 14.125 15.7455 14.3245C15.4269 14.4564 15.1375 14.6498 14.8936 14.8936C14.6498 15.1375 14.4564 15.4269 14.3245 15.7455C14.125 16.2273 14.125 16.8398 14.125 18.0625C14.125 19.2852 14.125 19.8977 13.9255 20.3795C13.7936 20.6981 13.6002 20.9875 13.3564 21.2314C13.1125 21.4752 12.8231 21.6686 12.5045 21.8005M21.8005 12.5045C21.1729 14.6685 20.0184 16.6432 18.4405 18.2517C16.8626 19.8601 14.9105 21.0522 12.7588 21.7212L12.5045 21.8005M16.75 6.25V5.2C16.75 3.73 16.75 2.995 16.4642 2.43383C16.2127 1.93965 15.8113 1.53777 15.3173 1.28583C14.755 1 14.02 1 12.55 1H5.2C3.73 1 2.995 1 2.43383 1.28583C1.93947 1.53758 1.53758 1.93947 1.28583 2.43383C1 2.99383 1 3.72883 1 5.2V12.55C1 14.02 1 14.755 1.28583 15.3162C1.53783 15.8108 1.93917 16.2122 2.43383 16.4642C2.99383 16.75 3.73 16.75 5.20117 16.75H6.25" stroke="black" stroke-width="2" stroke-linecap="round" stroke-linejoin="round"/>
</svg>
