<svg width="35" height="36" viewBox="0 0 35 36" fill="none" xmlns="http://www.w3.org/2000/svg">
<g clip-path="url(#clip0_108_83)">
<path d="M17.4275 15.75C15.9356 15.75 14.5049 15.1574 13.45 14.1025C12.3951 13.0476 11.8025 11.6168 11.8025 10.125C11.8025 8.63316 12.3951 7.20242 13.45 6.14752C14.5049 5.09263 15.9356 4.5 17.4275 4.5C18.9193 4.5 20.3501 5.09263 21.405 6.14752C22.4599 7.20242 23.0525 8.63316 23.0525 10.125C23.0525 11.6168 22.4599 13.0476 21.405 14.1025C20.3501 15.1574 18.9193 15.75 17.4275 15.75ZM17.4275 6.75C15.56 6.75 14.0525 8.2575 14.0525 10.125C14.0525 11.9925 15.56 13.5 17.4275 13.5C19.295 13.5 20.8025 11.9925 20.8025 10.125C20.8025 8.2575 19.295 6.75 17.4275 6.75Z" fill="#F2F3F4"/>
<path d="M30.9275 24.75C30.2975 24.75 29.8025 24.255 29.8025 23.625C29.8025 22.995 30.2975 22.5 30.9275 22.5C31.5575 22.5 32.0525 22.005 32.0525 21.375C32.0525 19.8832 31.4599 18.4524 30.405 17.3975C29.3501 16.3426 27.9193 15.75 26.4275 15.75H24.1775C23.5475 15.75 23.0525 15.255 23.0525 14.625C23.0525 13.995 23.5475 13.5 24.1775 13.5C26.045 13.5 27.5525 11.9925 27.5525 10.125C27.5525 8.2575 26.045 6.75 24.1775 6.75C23.5475 6.75 23.0525 6.255 23.0525 5.625C23.0525 4.995 23.5475 4.5 24.1775 4.5C25.6693 4.5 27.1001 5.09263 28.155 6.14752C29.2099 7.20242 29.8025 8.63316 29.8025 10.125C29.8025 11.52 29.3075 12.78 28.4525 13.77C31.805 14.67 34.3025 17.73 34.3025 21.375C34.3025 23.2425 32.795 24.75 30.9275 24.75ZM3.92749 24.75C2.05999 24.75 0.55249 23.2425 0.55249 21.375C0.55249 17.73 3.02749 14.67 6.40249 13.77C5.56999 12.78 5.05249 11.52 5.05249 10.125C5.05249 8.63316 5.64512 7.20242 6.70001 6.14752C7.75491 5.09263 9.18565 4.5 10.6775 4.5C11.3075 4.5 11.8025 4.995 11.8025 5.625C11.8025 6.255 11.3075 6.75 10.6775 6.75C8.80999 6.75 7.30249 8.2575 7.30249 10.125C7.30249 11.9925 8.80999 13.5 10.6775 13.5C11.3075 13.5 11.8025 13.995 11.8025 14.625C11.8025 15.255 11.3075 15.75 10.6775 15.75H8.42749C6.93565 15.75 5.50491 16.3426 4.45001 17.3975C3.39512 18.4524 2.80249 19.8832 2.80249 21.375C2.80249 22.005 3.29749 22.5 3.92749 22.5C4.55749 22.5 5.05249 22.995 5.05249 23.625C5.05249 24.255 4.55749 24.75 3.92749 24.75ZM24.1775 31.5H10.6775C8.80999 31.5 7.30249 29.9925 7.30249 28.125V25.875C7.30249 21.5325 10.835 18 15.1775 18H19.6775C24.02 18 27.5525 21.5325 27.5525 25.875V28.125C27.5525 29.9925 26.045 31.5 24.1775 31.5ZM15.1775 20.25C13.6856 20.25 12.2549 20.8426 11.2 21.8975C10.1451 22.9524 9.55249 24.3832 9.55249 25.875V28.125C9.55249 28.755 10.0475 29.25 10.6775 29.25H24.1775C24.8075 29.25 25.3025 28.755 25.3025 28.125V25.875C25.3025 24.3832 24.7099 22.9524 23.655 21.8975C22.6001 20.8426 21.1693 20.25 19.6775 20.25H15.1775Z" fill="#F2F3F4"/>
</g>
<defs>
<clipPath id="clip0_108_83">
<rect width="33.75" height="36" fill="white" transform="translate(0.55249)"/>
</clipPath>
</defs>
</svg>
