<svg width="37" height="36" viewBox="0 0 37 36" fill="none" xmlns="http://www.w3.org/2000/svg">
<path d="M13.2137 18C14.1457 18 14.9012 17.2445 14.9012 16.3125C14.9012 15.3805 14.1457 14.625 13.2137 14.625C12.2818 14.625 11.5262 15.3805 11.5262 16.3125C11.5262 17.2445 12.2818 18 13.2137 18Z" fill="#F2F3F4"/>
<path d="M18.2798 27.0001C15.0862 27.0001 12.4002 24.9237 11.5502 22.0901C11.5264 22.0058 11.5226 21.9171 11.5392 21.8311C11.5558 21.745 11.5922 21.6641 11.6456 21.5946C11.699 21.5252 11.7679 21.4692 11.8468 21.431C11.9257 21.3929 12.0124 21.3737 12.1 21.3751H24.4532C24.5408 21.3737 24.6275 21.3929 24.7064 21.431C24.7853 21.4692 24.8542 21.5252 24.9076 21.5946C24.961 21.6641 24.9974 21.745 25.014 21.8311C25.0306 21.9171 25.0268 22.0058 25.0031 22.0901C24.16 24.9237 21.4734 27.0001 18.2798 27.0001Z" fill="#F2F3F4"/>
<path d="M23.3387 18C24.2707 18 25.0262 17.2445 25.0262 16.3125C25.0262 15.3805 24.2707 14.625 23.3387 14.625C22.4068 14.625 21.6512 15.3805 21.6512 16.3125C21.6512 17.2445 22.4068 18 23.3387 18Z" fill="#F2F3F4"/>
<path d="M18.2762 32.625C26.3534 32.625 32.9012 26.0772 32.9012 18C32.9012 9.92284 26.3534 3.375 18.2762 3.375C10.1991 3.375 3.65125 9.92284 3.65125 18C3.65125 26.0772 10.1991 32.625 18.2762 32.625Z" stroke="#F2F3F4" stroke-width="2" stroke-miterlimit="10"/>
</svg>
