<svg width="42" height="40" viewBox="0 0 42 40" fill="none" xmlns="http://www.w3.org/2000/svg">
<path d="M12.0588 2C6.50424 2 2 6.78588 2 12.6878C2 24.5 21.0588 38 21.0588 38C21.0588 38 40.1176 24.5 40.1176 12.6878C40.1176 5.37553 35.6134 2 30.0588 2C26.12 2 22.7106 4.40565 21.0588 7.90824C19.4071 4.40565 15.9976 2 12.0588 2Z" stroke="#F2F3F4" stroke-width="2.25" stroke-linecap="round" stroke-linejoin="round"/>
<path d="M18.4118 25.294C17.8501 25.294 17.3115 25.0709 16.9144 24.6738C16.5172 24.2767 16.2941 23.738 16.2941 23.1764V18.1788L21.0588 14.7058L25.8235 18.1788V23.1764C25.8235 23.738 25.6004 24.2767 25.2033 24.6738C24.8061 25.0709 24.2675 25.294 23.7059 25.294H18.4118Z" stroke="#F2F3F4" stroke-width="2.25" stroke-linecap="round" stroke-linejoin="round"/>
</svg>
