<svg width="19" height="19" viewBox="0 0 19 19" fill="none" xmlns="http://www.w3.org/2000/svg">
<path fill-rule="evenodd" clip-rule="evenodd" d="M0.5 3.2C0.5 2.48392 0.784464 1.79716 1.29081 1.29081C1.79716 0.784464 2.48392 0.5 3.2 0.5H15.8C16.5161 0.5 17.2028 0.784464 17.7092 1.29081C18.2155 1.79716 18.5 2.48392 18.5 3.2V9.05C18.4999 9.12591 18.4903 9.20152 18.4712 9.275C18.4903 9.34849 18.4999 9.42409 18.5 9.5V15.8C18.5 16.5161 18.2155 17.2028 17.7092 17.7092C17.2028 18.2155 16.5161 18.5 15.8 18.5H3.2C2.48392 18.5 1.79716 18.2155 1.29081 17.7092C0.784464 17.2028 0.5 16.5161 0.5 15.8V13.1C0.500072 13.0241 0.509749 12.9485 0.5288 12.875C0.509749 12.8015 0.500072 12.7259 0.5 12.65V3.2ZM3.1946 12.047C2.8814 12.053 2.5832 12.0668 2.3 12.0884V3.2C2.3 2.96131 2.39482 2.73239 2.5636 2.5636C2.73239 2.39482 2.96131 2.3 3.2 2.3H15.8C16.0387 2.3 16.2676 2.39482 16.4364 2.5636C16.6052 2.73239 16.7 2.96131 16.7 3.2V8.6144C12.8327 8.7395 10.04 9.671 8.078 10.9751C8.8214 11.2388 9.653 11.6141 10.4684 12.1055C11.7275 12.8615 13.0073 13.9235 13.8686 15.3302C13.9303 15.431 13.9715 15.543 13.9899 15.6597C14.0084 15.7765 14.0036 15.8957 13.9759 16.0106C13.9483 16.1256 13.8983 16.2339 13.8287 16.3295C13.7592 16.4251 13.6715 16.506 13.5707 16.5677C13.4699 16.6294 13.3579 16.6706 13.2412 16.689C13.1244 16.7075 13.0052 16.7027 12.8903 16.675C12.7753 16.6474 12.667 16.5974 12.5714 16.5278C12.4758 16.4583 12.3949 16.3706 12.3332 16.2698C11.6708 15.1871 10.643 14.3096 9.5414 13.6481C8.4416 12.9875 7.3229 12.5753 6.5471 12.3953C5.45419 12.146 4.33522 12.0294 3.2144 12.0479L3.1946 12.047ZM4.9802 4.5392C5.38124 4.25636 5.85926 4.10309 6.35 4.1C6.719 4.1 7.2527 4.2035 7.7198 4.5392C8.2328 4.9082 8.6 5.5166 8.6 6.35C8.6 7.1834 8.2328 7.7909 7.7198 8.1599C7.31886 8.44306 6.84083 8.59664 6.35 8.6C5.981 8.6 5.4473 8.4965 4.9802 8.1599C4.4672 7.7909 4.1 7.1843 4.1 6.35C4.1 5.5166 4.4672 4.9091 4.9802 4.5392Z" fill="white"/>
</svg>
