<svg width="68" height="36" viewBox="0 0 68 36" fill="none" xmlns="http://www.w3.org/2000/svg">
<rect width="68" height="36" rx="5" fill="#1C1C1C"/>
<path d="M11.5585 30V7.28H18.2145C21.2652 7.28 23.5372 7.80267 25.0305 8.848C26.5452 9.89333 27.3025 11.408 27.3025 13.392C27.3025 14.544 26.9932 15.568 26.3745 16.464C25.7772 17.36 24.9132 18.032 23.7825 18.48C24.9558 18.8853 25.8838 19.5467 26.5665 20.464C27.2492 21.3813 27.5905 22.4373 27.5905 23.632C27.5905 25.6587 26.8865 27.2267 25.4785 28.336C24.0705 29.4453 22.1505 30 19.7185 30H11.5585ZM18.2465 9.936H14.7265V17.232H18.5665C20.4012 17.232 21.7772 16.9333 22.6945 16.336C23.6118 15.7173 24.0705 14.768 24.0705 13.488C24.0705 12.2507 23.6012 11.3547 22.6625 10.8C21.7452 10.224 20.2732 9.936 18.2465 9.936ZM14.7265 27.344H19.6225C21.0732 27.344 22.2252 27.056 23.0785 26.48C23.9318 25.8827 24.3585 24.9333 24.3585 23.632C24.3585 21.1573 22.7158 19.92 19.4305 19.92H14.7265V27.344Z" fill="#EFE4D6"/>
<path d="M40.5585 30V7.28H47.2145C50.2652 7.28 52.5372 7.80267 54.0305 8.848C55.5452 9.89333 56.3025 11.408 56.3025 13.392C56.3025 14.544 55.9932 15.568 55.3745 16.464C54.7772 17.36 53.9132 18.032 52.7825 18.48C53.9558 18.8853 54.8838 19.5467 55.5665 20.464C56.2492 21.3813 56.5905 22.4373 56.5905 23.632C56.5905 25.6587 55.8865 27.2267 54.4785 28.336C53.0705 29.4453 51.1505 30 48.7185 30H40.5585ZM47.2465 9.936H43.7265V17.232H47.5665C49.4012 17.232 50.7772 16.9333 51.6945 16.336C52.6118 15.7173 53.0705 14.768 53.0705 13.488C53.0705 12.2507 52.6012 11.3547 51.6625 10.8C50.7452 10.224 49.2732 9.936 47.2465 9.936ZM43.7265 27.344H48.6225C50.0732 27.344 51.2252 27.056 52.0785 26.48C52.9318 25.8827 53.3585 24.9333 53.3585 23.632C53.3585 21.1573 51.7158 19.92 48.4305 19.92H43.7265V27.344Z" fill="#EFE4D6"/>
</svg>
