<svg width="30" height="28" viewBox="0 0 30 28" fill="none" xmlns="http://www.w3.org/2000/svg">
<path d="M9.40002 6.77778V3.88889C9.40002 3.12271 9.69502 2.38791 10.2201 1.84614C10.7452 1.30436 11.4574 1 12.2 1H17.8C18.5426 1 19.2548 1.30436 19.7799 1.84614C20.305 2.38791 20.6 3.12271 20.6 3.88889V6.77778" stroke="#90512E" stroke-width="2" stroke-linecap="round" stroke-linejoin="round"/>
<path d="M9.4 27C10.1426 27 10.8548 26.6956 11.3799 26.1539C11.905 25.6121 12.2 24.8773 12.2 24.1111V12.5555C12.2 11.0232 11.61 9.55359 10.5598 8.47004C9.50959 7.3865 8.08521 6.77777 6.6 6.77777M6.6 6.77777C5.11479 6.77777 3.69041 7.3865 2.6402 8.47004C1.59 9.55359 1 11.0232 1 12.5555V24.1111C1 24.8773 1.295 25.6121 1.8201 26.1539C2.3452 26.6956 3.05739 27 3.8 27H26.2C26.9426 27 27.6548 26.6956 28.1799 26.1539C28.705 25.6121 29 24.8773 29 24.1111V12.5555C29 11.0232 28.41 9.55359 27.3598 8.47004C26.3096 7.3865 24.8852 6.77777 23.4 6.77777H6.6ZM1 15.4444H29" stroke="#90512E" stroke-width="2" stroke-linecap="round" stroke-linejoin="round"/>
</svg>
