<svg width="36" height="36" viewBox="0 0 36 36" fill="none" xmlns="http://www.w3.org/2000/svg">
<path d="M30.6325 2.52674L28.5875 6.00788C30.5083 6.79428 32.1516 8.13463 33.308 9.8582C34.4644 11.5818 35.0816 13.6106 35.081 15.6861V21.7629C35.081 29.628 28.709 36 20.8439 36H14.6183C6.75319 36 0.381226 29.628 0.381226 21.7629V15.6861C0.381226 9.91688 5.06657 5.23154 10.8358 5.23154H24.6264C24.8133 5.23154 24.9985 5.2365 25.182 5.24642L27.7888 0.809114C27.9021 0.618415 28.0525 0.452449 28.2312 0.3211C28.4099 0.189751 28.6132 0.0957037 28.8291 0.0445581C29.0449 -0.00658754 29.2688 -0.0137858 29.4874 0.023392C29.706 0.0605697 29.915 0.141363 30.1018 0.260962C30.8682 0.748347 31.084 1.75908 30.6325 2.52674ZM10.7825 8.50433C8.88118 8.50958 7.05949 9.2683 5.71657 10.6142C4.37365 11.9602 3.61903 13.7836 3.61805 15.6849C3.62105 17.57 4.36395 19.3785 5.6869 20.7214C7.00985 22.0643 8.80711 22.8342 10.6919 22.8654C10.8796 22.3437 11.121 21.8303 11.4162 21.3251C12.7159 19.1127 14.7398 17.6977 16.708 17.4025C17.1559 17.3426 17.5844 17.1823 17.9617 16.9337C18.339 16.685 18.6553 16.3544 18.887 15.9664L23.2684 8.50433H10.7825ZM21.5533 20.2574C21.8509 21.0411 21.9787 21.9316 21.9291 22.8654H24.8373C26.7406 22.8621 28.5651 22.1046 29.911 20.7587C31.257 19.4128 32.0145 17.5883 32.0178 15.6849C32.0178 12.4592 29.8736 9.71969 26.9369 8.81809L21.7517 17.6481C21.5246 18.0401 21.3889 18.4783 21.3545 18.93C21.3202 19.3818 21.3881 19.8355 21.5533 20.2574ZM20.8439 33.5184C22.388 33.5189 23.917 33.2152 25.3436 32.6245C26.7702 32.0338 28.0665 31.1679 29.1583 30.076C30.2501 28.9842 31.1161 27.688 31.7067 26.2614C32.2974 24.8348 32.6012 23.3057 32.6007 21.7617V20.302C31.7912 21.7001 30.6283 22.8608 29.2287 23.6677C27.8291 24.4746 26.242 24.8993 24.6264 24.8993H10.8358C9.22039 24.8994 7.63333 24.4749 6.23374 23.6682C4.83415 22.8615 3.67122 21.7011 2.86155 20.3032V21.7629C2.86106 23.307 3.16483 24.836 3.75549 26.2626C4.34615 27.6892 5.21212 28.9855 6.30394 30.0773C7.39575 31.1691 8.692 32.0351 10.1186 32.6257C11.5452 33.2164 13.0742 33.5202 14.6183 33.5197L20.8439 33.5184ZM20.4781 22.8654C20.4781 21.4033 19.8878 20.116 18.7629 19.455C16.8345 18.3227 14.0602 19.4624 12.5696 22.0023C12.4072 22.2803 12.263 22.5687 12.138 22.8654H20.4781Z" fill="#F2F3F4"/>
</svg>
