<svg width="36" height="68" viewBox="0 0 36 68" fill="none" xmlns="http://www.w3.org/2000/svg">
<g clip-path="url(#clip0_99_46)">
<rect y="68" width="68" height="36" rx="5" transform="rotate(-90 0 68)" fill="#EFE4D6"/>
<path d="M10.5585 31V8.28H17.2145C20.2652 8.28 22.5372 8.80267 24.0305 9.848C25.5452 10.8933 26.3025 12.408 26.3025 14.392C26.3025 15.544 25.9932 16.568 25.3745 17.464C24.7772 18.36 23.9132 19.032 22.7825 19.48C23.9558 19.8853 24.8838 20.5467 25.5665 21.464C26.2492 22.3813 26.5905 23.4373 26.5905 24.632C26.5905 26.6587 25.8865 28.2267 24.4785 29.336C23.0705 30.4453 21.1505 31 18.7185 31H10.5585ZM17.2465 10.936H13.7265V18.232H17.5665C19.4012 18.232 20.7772 17.9333 21.6945 17.336C22.6118 16.7173 23.0705 15.768 23.0705 14.488C23.0705 13.2507 22.6012 12.3547 21.6625 11.8C20.7452 11.224 19.2732 10.936 17.2465 10.936ZM13.7265 28.344H18.6225C20.0732 28.344 21.2252 28.056 22.0785 27.48C22.9318 26.8827 23.3585 25.9333 23.3585 24.632C23.3585 22.1573 21.7158 20.92 18.4305 20.92H13.7265V28.344Z" fill="#90512E"/>
<path d="M10.5585 61V38.28H17.2145C20.2652 38.28 22.5372 38.8027 24.0305 39.848C25.5452 40.8933 26.3025 42.408 26.3025 44.392C26.3025 45.544 25.9932 46.568 25.3745 47.464C24.7772 48.36 23.9132 49.032 22.7825 49.48C23.9558 49.8853 24.8838 50.5467 25.5665 51.464C26.2492 52.3813 26.5905 53.4373 26.5905 54.632C26.5905 56.6587 25.8865 58.2267 24.4785 59.336C23.0705 60.4453 21.1505 61 18.7185 61H10.5585ZM17.2465 40.936H13.7265V48.232H17.5665C19.4012 48.232 20.7772 47.9333 21.6945 47.336C22.6118 46.7173 23.0705 45.768 23.0705 44.488C23.0705 43.2507 22.6012 42.3547 21.6625 41.8C20.7452 41.224 19.2732 40.936 17.2465 40.936ZM13.7265 58.344H18.6225C20.0732 58.344 21.2252 58.056 22.0785 57.48C22.9318 56.8827 23.3585 55.9333 23.3585 54.632C23.3585 52.1573 21.7158 50.92 18.4305 50.92H13.7265V58.344Z" fill="#90512E"/>
</g>
<defs>
<clipPath id="clip0_99_46">
<rect y="68" width="68" height="36" rx="5" transform="rotate(-90 0 68)" fill="white"/>
</clipPath>
</defs>
</svg>
